<svg width="32" height="32" viewBox="0 0 32 32" fill="none" xmlns="http://www.w3.org/2000/svg">
  <!-- Background circle -->
  <circle cx="16" cy="16" r="16" fill="#3B82F6"/>
  
  <!-- Car icon -->
  <path d="M8 20C8 18.8954 8.89543 18 10 18H22C23.1046 18 24 18.8954 24 20V22C24 23.1046 23.1046 24 22 24H10C8.89543 24 8 23.1046 8 22V20Z" fill="white"/>
  
  <!-- Car body -->
  <path d="M9 16C9 14.8954 9.89543 14 11 14H21C22.1046 14 23 14.8954 23 16V18H9V16Z" fill="white"/>
  
  <!-- Car roof -->
  <path d="M12 12C12 10.8954 12.8954 10 14 10H18C19.1046 10 20 10.8954 20 12V14H12V12Z" fill="white"/>
  
  <!-- Wheels -->
  <circle cx="12" cy="20" r="2" fill="#1E293B"/>
  <circle cx="20" cy="20" r="2" fill="#1E293B"/>
  
  <!-- Water drops for car wash theme -->
  <path d="M6 8C6 6.89543 6.89543 6 8 6C9.10457 6 10 6.89543 10 8C10 9.10457 9.10457 10 8 10C6.89543 10 6 9.10457 6 8Z" fill="#60A5FA"/>
  <path d="M22 8C22 6.89543 22.8954 6 24 6C25.1046 6 26 6.89543 26 8C26 9.10457 25.1046 10 24 10C22.8954 10 22 9.10457 22 8Z" fill="#60A5FA"/>
</svg> 